<svg width="271" height="120" viewBox="0 0 271 120" fill="none" xmlns="http://www.w3.org/2000/svg">
<path d="M92.4606 38.9618C92.4117 38.6419 92.3384 38.3467 92.2651 38.0269C91.6054 34.9023 90.9945 32.9341 90.9945 32.9341C90.9945 32.9341 89.4307 28.3581 87.7203 25.6518C87.7203 25.6518 87.7203 25.6026 87.6714 25.578C87.647 25.5288 87.5981 25.455 87.5004 25.2827C86.8651 24.151 86.2542 23.1423 85.6678 22.232C85.4479 21.9122 85.2524 21.5924 85.0325 21.2725C84.8614 21.0265 84.6904 20.7559 84.5194 20.5344C84.5194 20.5344 84.5194 20.5836 84.5194 20.6083C76.065 8.72521 62.2839 1 46.6701 1C20.8916 1 0 22.0352 0 47.9909C0 71.9292 17.7884 91.6605 40.8058 94.5636C40.8058 94.5636 40.7814 94.5882 40.757 94.6128C40.8303 94.6128 40.9036 94.6128 40.9769 94.6128C42.8583 94.8342 44.7642 95.0064 46.6946 95.0064C48.3561 95.0064 49.9932 94.908 51.6304 94.7358C51.6548 94.7358 51.6792 94.7358 51.7281 94.7358C53.634 94.6128 54.4159 94.2191 55.4177 94.7358C56.444 95.2771 56.8594 96.4088 56.9571 96.7778C56.9571 96.8024 56.9571 96.827 56.9815 96.8762C57.3236 98.1802 55.9553 99.7055 55.6621 100.05C51.6059 104.577 41.9542 108.636 41.9542 108.636C36.9696 110.727 35.0393 111.293 34.5017 113.163C33.9153 115.156 35.1614 117.592 36.3587 118.65C42.0764 123.619 60.5734 114.073 72.1799 103.051C74.941 100.419 93.8778 81.9917 94 53.2805C94 47.9171 93.267 42.7752 92.5095 38.9864L92.4606 38.9618Z" fill="url(#paint0_radial_61_27)"/>
<path d="M118.161 49.6267C117.326 49.2584 116.909 48.7672 116.909 48.2025C116.909 47.9078 117.007 47.6868 117.179 47.5149L120.985 42.7512C121.55 43.7825 122.164 44.4946 122.753 44.8384C123.367 45.1821 124.128 45.354 125.036 45.354H148.659V36.2685C141.096 35.8756 135.227 34.2304 131.053 31.3329C126.878 28.4599 124.791 24.5555 124.791 19.6444C124.791 14.3896 127.222 10.2888 132.059 7.3667C136.897 4.42005 143.6 2.94672 152.146 2.94672C160.691 2.94672 167.37 4.42005 172.232 7.3667C177.094 10.3134 179.501 14.4141 179.501 19.6444C179.501 24.5555 177.413 28.4353 173.214 31.3329C169.04 34.2058 163.171 35.8511 155.608 36.2685V45.354H187.555L186.18 50.1915H122.213C120.371 50.1915 119.02 49.995 118.186 49.6267H118.161ZM138.763 73.9121C140.58 73.7893 143.085 73.7402 146.252 73.7402H182.005L180.63 78.4057H145.221C140.654 78.4057 137.363 78.5039 135.35 78.6758C133.336 78.8477 130.365 79.2406 126.436 79.879C126.731 77.8655 126.878 75.5818 126.878 73.0526V63.1813C126.878 62.4446 126.657 61.8308 126.191 61.3642C125.724 60.8977 124.717 60.4065 123.17 59.8909L131.298 56.5022C131.642 56.3794 131.912 56.3303 132.084 56.3303C133.361 56.3303 133.999 58.0738 133.999 61.5361V74.6978C135.374 74.2804 136.995 74.0348 138.812 73.9121H138.763ZM167.026 28.4844C170.489 26.4709 172.208 23.5242 172.208 19.6444C172.208 15.7647 170.464 12.8426 167.026 10.829C163.564 8.81548 158.604 7.8087 152.146 7.8087C145.688 7.8087 140.727 8.81548 137.265 10.829C133.803 12.8426 132.059 15.7892 132.059 19.6444C132.059 23.4997 133.803 26.4463 137.265 28.4844C140.727 30.5225 145.688 31.5047 152.146 31.5047C158.604 31.5047 163.564 30.498 167.026 28.4844Z" fill="#493B2A"/>
<path d="M233.056 44.3963C228.317 44.3963 224.584 43.4386 221.859 41.4988C219.133 39.5589 217.635 36.735 217.39 32.978C214.443 36.4403 211.668 39.1169 209.041 41.0322C206.413 42.9475 203.663 44.2735 200.815 45.0102C197.966 45.7714 194.602 46.1398 190.722 46.1398L192.883 39.6571C196.468 39.608 199.587 39.1169 202.239 38.2329C204.891 37.3489 207.641 35.5809 210.465 33.0026C213.289 30.3997 216.53 26.5445 220.164 21.4124L224.83 14.9297C225.591 13.9475 226.303 13.1372 226.991 12.4987H200.324C199.513 12.4987 198.457 12.597 197.156 12.7934C195.854 12.9898 194.921 13.2108 194.332 13.4318L197.524 7.19476H236.813C234.898 8.98731 233.179 10.9763 231.632 13.1617L226.794 20.2583C224.142 24.1871 221.981 27.232 220.312 29.442C220.091 32.2168 221.245 34.4022 223.823 36.0229C226.401 37.6436 229.815 38.4539 234.087 38.4539C235.02 38.4539 235.978 38.4539 236.985 38.4048C237.992 38.3802 238.9 38.282 239.711 38.1101L237.967 44.1753C236.862 44.3472 235.217 44.4454 233.031 44.4454L233.056 44.3963ZM253.904 53.1381C253.388 54.8815 253.118 56.8214 253.118 59.0314V74.6978C254.493 74.575 255.647 74.4031 256.58 74.1821L254.935 79.4615H219.722C211.865 79.4615 205.431 80.0018 200.422 81.1067C200.716 80.3455 200.937 79.3388 201.109 78.0373C201.281 76.7359 201.379 75.4835 201.379 74.2803V60.0873C201.379 57.2634 201.036 54.9552 200.348 53.1626H253.928L253.904 53.1381ZM220.582 74.7714H246.365V57.6317H208.28V75.2871C211.153 74.9433 215.253 74.7714 220.557 74.7714H220.582ZM246.881 49.5775V26.569H232.418L233.793 22.0754H246.856V6.82642C246.856 6.0652 246.611 5.47587 246.12 5.00932C245.628 4.54276 244.622 4.05165 243.124 3.53599L251.178 0.171888C251.399 0.049111 251.645 0 251.866 0C253.142 0 253.781 1.71888 253.781 5.18121V46.9992L246.856 49.6021L246.881 49.5775Z" fill="#493B2A"/>
<path d="M128.99 111.089C128.769 110.868 128.622 110.549 128.597 110.131C127.443 111.04 126.363 111.507 125.38 111.507C124.57 111.507 123.932 111.236 123.44 110.696C122.949 110.156 122.704 109.468 122.704 108.609C122.704 108.142 122.802 107.676 123.023 107.283C123.244 106.866 123.539 106.522 123.907 106.227C124.619 105.662 125.675 105.368 127.05 105.319L128.572 105.269V103.894C128.572 103.182 128.376 102.642 127.983 102.274C127.59 101.905 127.025 101.709 126.289 101.709C125.307 101.709 124.275 102.053 123.195 102.716L124.202 101.242C125.061 100.776 126.043 100.53 127.124 100.53C128.057 100.53 128.769 100.776 129.309 101.267C129.849 101.758 130.095 102.421 130.095 103.28V109.444C130.095 109.739 130.144 109.935 130.242 110.033C130.34 110.156 130.488 110.205 130.684 110.205C131.053 110.205 131.396 110.156 131.666 110.058L130.93 111.236C130.635 111.359 130.291 111.433 129.874 111.433C129.506 111.433 129.211 111.31 128.99 111.089ZM124.766 109.763C125.086 110.131 125.528 110.303 126.092 110.303C126.952 110.303 127.787 110.082 128.572 109.665V106.424L126.583 106.35C125.699 106.301 125.061 106.497 124.717 106.89C124.595 107.037 124.496 107.209 124.398 107.455C124.3 107.7 124.275 107.946 124.275 108.216C124.275 108.855 124.447 109.37 124.766 109.739V109.763Z" fill="#493B2A"/>
<path d="M138.812 111.408V114.208C138.812 114.379 138.861 114.527 138.984 114.625C139.107 114.723 139.328 114.821 139.647 114.944L137.854 115.804C137.683 115.877 137.56 115.804 137.437 115.632C137.339 115.435 137.265 115.141 137.265 114.748V102.151C137.265 101.979 137.216 101.832 137.093 101.733C136.97 101.635 136.749 101.537 136.43 101.414L138.223 100.555C138.395 100.481 138.517 100.555 138.64 100.751C138.763 100.948 138.812 101.242 138.812 101.635V101.832C139.156 101.439 139.573 101.12 140.064 100.874C140.556 100.653 141.047 100.53 141.513 100.53C142.274 100.53 142.937 100.751 143.527 101.169C144.116 101.611 144.583 102.2 144.902 102.986C145.221 103.772 145.393 104.68 145.393 105.711C145.393 107.75 144.828 109.297 143.674 110.352C142.815 111.114 141.759 111.482 140.531 111.482C139.991 111.482 139.401 111.457 138.812 111.384V111.408ZM140.973 110.303C141.832 110.303 142.471 110.082 142.913 109.64C143.527 109.051 143.821 107.848 143.821 106.031C143.821 104.68 143.527 103.624 142.962 102.863C142.397 102.077 141.636 101.709 140.703 101.709C140.015 101.709 139.377 101.881 138.812 102.225V109.984C139.451 110.181 140.187 110.303 140.973 110.303Z" fill="#493B2A"/>
<path d="M147.603 101.734C147.603 101.734 147.259 101.537 146.94 101.414L148.733 100.555C148.904 100.481 149.027 100.555 149.15 100.751C149.273 100.948 149.322 101.242 149.322 101.635V109.886C149.322 110.058 149.371 110.205 149.494 110.303C149.617 110.402 149.838 110.5 150.157 110.623L148.364 111.482C148.192 111.556 148.07 111.482 147.947 111.286C147.849 111.089 147.775 110.794 147.775 110.402V102.151C147.775 101.979 147.726 101.832 147.603 101.734ZM147.701 98.8114C147.701 98.2958 147.48 97.952 147.014 97.8047L148.708 96.9698C148.708 96.9698 148.855 96.9207 148.904 96.9207C149.027 96.9207 149.15 96.9943 149.224 97.1662C149.322 97.3381 149.371 97.5345 149.371 97.8047C149.371 98.0257 149.297 98.2958 149.15 98.615L147.652 99.3516C147.701 99.2043 147.701 99.0324 147.701 98.836V98.8114Z" fill="#493B2A"/>
<path d="M153.938 110.868C153.226 110.426 152.686 109.812 152.293 109.002C151.925 108.192 151.728 107.234 151.728 106.129C151.728 104.042 152.293 102.495 153.447 101.512C154.233 100.849 155.166 100.53 156.32 100.53C157.352 100.53 158.186 100.899 158.849 101.635C159.512 102.372 159.832 103.379 159.856 104.68C159.856 105.22 159.856 105.613 159.807 105.883L153.3 106.006C153.324 107.357 153.668 108.413 154.307 109.149C154.945 109.886 155.829 110.254 156.934 110.254C158.039 110.254 158.972 110.033 159.783 109.591L158.825 111.163C158.211 111.408 157.425 111.531 156.468 111.531C155.51 111.531 154.675 111.31 153.963 110.868H153.938ZM158.236 104.877C158.236 103.845 157.99 103.084 157.548 102.544C157.106 102.028 156.541 101.758 155.854 101.758C155.24 101.758 154.675 101.954 154.184 102.347C153.889 102.568 153.693 102.888 153.545 103.33C153.398 103.772 153.3 104.361 153.275 105.098L158.211 104.877H158.236Z" fill="#493B2A"/>
<path d="M163.736 110.868C163.048 110.426 162.533 109.812 162.164 109.002C161.796 108.192 161.624 107.234 161.624 106.129C161.624 105.024 161.772 104.14 162.042 103.452C162.312 102.74 162.729 102.126 163.319 101.611C164.129 100.899 165.087 100.555 166.241 100.555C166.413 100.555 166.584 100.555 166.756 100.555C166.928 100.555 167.1 100.579 167.297 100.604C167.812 100.653 168.205 100.678 168.451 100.678C168.745 100.678 168.966 100.629 169.163 100.555L168.451 101.807C168.451 101.807 168.254 101.979 168.082 101.979C167.935 101.979 167.665 101.979 167.272 101.905C166.707 101.807 166.216 101.783 165.799 101.783C165.062 101.783 164.473 101.979 164.055 102.397C163.761 102.691 163.54 103.109 163.417 103.624C163.294 104.14 163.22 104.877 163.22 105.81C163.22 106.743 163.368 107.504 163.662 108.167C163.957 108.83 164.35 109.346 164.89 109.714C165.406 110.082 166.02 110.254 166.707 110.254C167.763 110.254 168.623 110.058 169.236 109.69L168.279 111.237C168.058 111.335 167.763 111.408 167.395 111.458C167.026 111.507 166.609 111.531 166.192 111.531C165.283 111.531 164.473 111.31 163.785 110.868H163.736Z" fill="#493B2A"/>
<path d="M172.158 110.868C171.446 110.426 170.906 109.812 170.513 109.002C170.145 108.192 169.948 107.234 169.948 106.129C169.948 104.042 170.513 102.495 171.667 101.512C172.453 100.849 173.386 100.53 174.54 100.53C175.572 100.53 176.407 100.899 177.07 101.635C177.733 102.372 178.052 103.379 178.076 104.68C178.076 105.22 178.076 105.613 178.027 105.883L171.52 106.006C171.545 107.357 171.888 108.413 172.527 109.149C173.165 109.886 174.049 110.254 175.154 110.254C176.259 110.254 177.192 110.033 178.003 109.591L177.045 111.163C176.431 111.408 175.645 111.531 174.688 111.531C173.73 111.531 172.895 111.31 172.183 110.868H172.158ZM176.456 104.877C176.456 103.845 176.21 103.084 175.768 102.544C175.326 102.028 174.761 101.758 174.074 101.758C173.46 101.758 172.895 101.954 172.404 102.347C172.109 102.568 171.913 102.888 171.766 103.33C171.618 103.772 171.52 104.361 171.495 105.098L176.431 104.877H176.456Z" fill="#493B2A"/>
<path d="M186.032 110.868C185.394 110.426 184.903 109.812 184.559 109.002C184.215 108.192 184.043 107.234 184.043 106.129C184.043 105.024 184.166 104.115 184.436 103.379C184.706 102.667 185.124 102.077 185.713 101.586C186.548 100.874 187.53 100.53 188.635 100.53C189.495 100.53 190.256 100.751 190.894 101.193C191.533 101.635 192.024 102.249 192.368 103.059C192.711 103.87 192.883 104.827 192.883 105.932C192.883 107.037 192.761 107.946 192.49 108.658C192.22 109.37 191.803 109.984 191.214 110.451C190.379 111.163 189.396 111.507 188.291 111.507C187.432 111.507 186.671 111.286 186.032 110.844V110.868ZM189.716 110.131C190.01 110.033 190.256 109.886 190.452 109.665C190.747 109.346 190.968 108.953 191.091 108.437C191.214 107.921 191.287 107.209 191.287 106.276C191.287 104.901 191.017 103.821 190.452 103.01C189.888 102.2 189.126 101.783 188.169 101.783C187.8 101.783 187.481 101.832 187.162 101.93C186.867 102.028 186.622 102.2 186.425 102.396C186.131 102.716 185.91 103.109 185.787 103.624C185.664 104.14 185.59 104.852 185.59 105.785C185.59 107.16 185.86 108.241 186.425 109.051C186.99 109.861 187.751 110.279 188.709 110.279C189.077 110.279 189.396 110.23 189.716 110.131Z" fill="#493B2A"/>
<path d="M196.002 111.286C195.904 111.089 195.83 110.794 195.83 110.402V101.955H193.792L194.528 100.8H195.83V99.499C195.83 98.9833 196.002 98.4922 196.346 97.9765C196.689 97.4609 197.107 97.0434 197.573 96.6996C198.04 96.3559 198.482 96.184 198.85 96.184C199.145 96.184 199.562 96.2331 200.176 96.3313C200.348 96.3559 200.495 96.3804 200.643 96.405C200.79 96.4295 200.913 96.4295 201.036 96.4295C201.355 96.4295 201.65 96.3804 201.895 96.3067L201.109 97.5345C201.011 97.6819 200.864 97.7555 200.643 97.7555C200.471 97.7555 200.274 97.7555 200.103 97.6818C199.931 97.6327 199.759 97.5836 199.587 97.5345C199.366 97.4609 199.169 97.3872 199.022 97.3626C198.85 97.3135 198.678 97.3135 198.482 97.3135C197.745 97.3135 197.377 97.9274 197.377 99.1797V100.776H200.618L199.906 101.93H197.377V109.837C197.377 110.009 197.426 110.156 197.549 110.254C197.672 110.352 197.893 110.451 198.212 110.573L196.419 111.433C196.247 111.507 196.125 111.433 196.002 111.236V111.286Z" fill="#493B2A"/>
<path d="M205.996 102.004C205.849 101.832 205.701 101.758 205.505 101.758C205.235 101.758 205.014 101.758 204.842 101.832L205.775 100.629C205.996 100.555 206.192 100.506 206.389 100.506C206.954 100.506 207.346 100.899 207.617 101.66L209.949 108.732L212.528 102.544C212.405 102.225 212.258 102.004 212.135 101.881C212.012 101.758 211.865 101.684 211.693 101.684C211.496 101.684 211.324 101.709 211.177 101.758L212.037 100.629C212.233 100.555 212.405 100.506 212.577 100.506C213.092 100.506 213.51 100.899 213.755 101.66L216.186 108.756L218.004 104.189C218.274 103.477 218.421 102.937 218.421 102.544C218.421 102.004 218.225 101.734 217.807 101.734C217.635 101.734 217.39 101.783 217.12 101.856L217.856 100.629C218.151 100.555 218.421 100.506 218.642 100.506C219.403 100.506 219.772 100.923 219.772 101.783C219.772 102.347 219.6 103.06 219.231 103.919L216.162 111.212H215.573L213.019 103.87L209.925 111.212H209.335L206.462 102.789C206.34 102.397 206.192 102.126 206.07 101.979L205.996 102.004Z" fill="#493B2A"/>
<path d="M227.212 111.089C226.991 110.868 226.844 110.549 226.819 110.131C225.665 111.04 224.584 111.507 223.602 111.507C222.792 111.507 222.153 111.236 221.662 110.696C221.171 110.156 220.926 109.468 220.926 108.609C220.926 108.142 221.024 107.676 221.245 107.283C221.466 106.866 221.761 106.522 222.129 106.227C222.841 105.662 223.897 105.368 225.272 105.319L226.794 105.269V103.894C226.794 103.182 226.598 102.642 226.205 102.274C225.812 101.905 225.247 101.709 224.511 101.709C223.529 101.709 222.497 102.053 221.417 102.716L222.424 101.242C223.283 100.776 224.265 100.53 225.346 100.53C226.279 100.53 226.991 100.776 227.531 101.267C228.071 101.758 228.317 102.421 228.317 103.28V109.444C228.317 109.739 228.366 109.935 228.464 110.033C228.562 110.156 228.71 110.205 228.906 110.205C229.275 110.205 229.618 110.156 229.888 110.058L229.152 111.236C228.857 111.359 228.513 111.433 228.096 111.433C227.728 111.433 227.433 111.31 227.212 111.089ZM222.988 109.763C223.308 110.131 223.75 110.303 224.314 110.303C225.174 110.303 226.009 110.082 226.794 109.665V106.424L224.805 106.35C223.921 106.301 223.283 106.497 222.939 106.89C222.816 107.037 222.718 107.209 222.62 107.455C222.522 107.7 222.497 107.946 222.497 108.216C222.497 108.855 222.669 109.37 222.988 109.739V109.763Z" fill="#493B2A"/>
<path d="M231.116 101.733C231.116 101.733 230.772 101.537 230.453 101.414L232.246 100.555C232.418 100.481 232.54 100.555 232.663 100.751C232.786 100.948 232.835 101.242 232.835 101.635V102.151C233.203 101.611 233.547 101.218 233.842 100.948C234.161 100.678 234.529 100.555 234.971 100.555H235.684C236.003 100.604 236.224 100.604 236.371 100.604C236.666 100.604 236.887 100.555 237.083 100.481L236.371 101.733C236.371 101.733 236.273 101.881 236.224 101.905C236.175 101.93 236.101 101.954 236.003 101.954C235.88 101.954 235.708 101.954 235.487 101.881C235.094 101.807 234.775 101.783 234.529 101.783C233.891 101.783 233.326 102.151 232.835 102.912V111.261H231.288V102.175C231.288 102.004 231.239 101.856 231.116 101.758V101.733Z" fill="#493B2A"/>
<path d="M251.006 111.285C250.908 111.089 250.834 110.794 250.834 110.401V104.164C250.834 103.379 250.613 102.814 250.196 102.396C249.778 102.003 249.214 101.807 248.551 101.807C248.133 101.807 247.691 101.905 247.225 102.077C246.758 102.249 246.341 102.47 245.997 102.691C246.07 102.986 246.095 103.256 246.095 103.55V111.261H244.548V104.189C244.548 103.403 244.327 102.838 243.91 102.421C243.492 102.028 242.927 101.832 242.264 101.832C241.871 101.832 241.429 101.905 240.987 102.077C240.545 102.249 240.128 102.445 239.784 102.666V111.285H238.237V102.2C238.237 102.028 238.188 101.881 238.065 101.782C237.943 101.684 237.722 101.586 237.402 101.463L239.195 100.604C239.367 100.53 239.49 100.604 239.612 100.8C239.735 100.997 239.784 101.291 239.784 101.684V101.905C240.374 101.488 240.914 101.144 241.429 100.923C241.921 100.702 242.436 100.579 242.976 100.579C243.615 100.579 244.18 100.702 244.671 100.948C245.162 101.193 245.506 101.561 245.776 102.053C246.439 101.561 247.053 101.193 247.593 100.948C248.133 100.702 248.698 100.579 249.287 100.579C250.22 100.579 250.957 100.849 251.546 101.365C252.136 101.881 252.406 102.617 252.406 103.6V109.935C252.406 110.107 252.455 110.254 252.578 110.352C252.7 110.451 252.921 110.549 253.241 110.672L251.448 111.531C251.276 111.605 251.153 111.531 251.031 111.335L251.006 111.285Z" fill="#493B2A"/>
<path d="M256.261 110.819C255.819 110.352 255.598 109.763 255.598 109.002V101.954H254.174L256.605 99.1305C256.728 98.9832 256.826 98.9095 256.924 98.9095C257.047 98.9095 257.12 99.0323 257.12 99.3024V100.8H260.092L259.38 101.954H257.145V108.486C257.145 109.051 257.268 109.468 257.513 109.763C257.759 110.058 258.103 110.23 258.545 110.23C259.355 110.23 259.993 110.082 260.411 109.812L259.527 111.236C259.404 111.31 259.183 111.359 258.864 111.433C258.545 111.507 258.25 111.531 257.931 111.531C257.243 111.531 256.654 111.31 256.212 110.844L256.261 110.819Z" fill="#493B2A"/>
<path d="M268.244 111.285C268.146 111.089 268.072 110.794 268.072 110.401V104.164C268.072 103.379 267.851 102.814 267.434 102.396C267.016 102.004 266.452 101.807 265.789 101.807C265.396 101.807 264.954 101.881 264.512 102.053C264.07 102.225 263.652 102.421 263.308 102.642V111.261H261.761V97.8291C261.761 97.6572 261.712 97.5099 261.59 97.4116C261.467 97.3134 261.246 97.2152 260.927 97.0924L262.719 96.233C262.891 96.1593 263.014 96.233 263.137 96.4294C263.235 96.6259 263.308 96.9205 263.308 97.3134V101.856C263.898 101.439 264.438 101.095 264.954 100.874C265.445 100.653 265.96 100.53 266.501 100.53C267.434 100.53 268.17 100.8 268.76 101.316C269.325 101.832 269.619 102.568 269.619 103.551V109.886C269.619 110.058 269.668 110.205 269.791 110.303C269.914 110.401 270.135 110.5 270.454 110.622L268.662 111.482C268.49 111.556 268.367 111.482 268.244 111.285Z" fill="#493B2A"/>
<path d="M29.5 13L32.4567 22.1729H42L34.2837 27.8514L37.2163 37L29.5 31.3458L21.7837 37L24.7404 27.8514L17 22.1729H26.5433L29.5 13Z" fill="url(#paint1_radial_61_27)"/>
<defs>
<radialGradient id="paint0_radial_61_27" cx="0" cy="0" r="1" gradientUnits="userSpaceOnUse" gradientTransform="translate(44.862 45.4322) scale(60.7933 61.2112)">
<stop stop-color="#EB8100"/>
<stop offset="0.37" stop-color="#FFA200"/>
<stop offset="1" stop-color="#FFF39C"/>
</radialGradient>
<radialGradient id="paint1_radial_61_27" cx="0" cy="0" r="1" gradientUnits="userSpaceOnUse" gradientTransform="translate(29.5 25.0121) scale(12.1875 12.3033)">
<stop stop-color="white"/>
<stop offset="1" stop-color="white" stop-opacity="0"/>
</radialGradient>
</defs>
</svg>
